<svg width="22" height="20" viewBox="0 0 22 20" fill="none" xmlns="http://www.w3.org/2000/svg">
<path d="M20.925 3.641H3.86298L3.60998 0.816C3.58999 0.59301 3.48724 0.385582 3.32196 0.234558C3.15669 0.0835332 2.94086 -0.000144378 2.71698 1.87005e-07H0.896977C0.659343 1.87005e-07 0.431442 0.0943999 0.263409 0.262433C0.0953763 0.430465 0.000976563 0.658366 0.000976562 0.896C0.000976563 1.13363 0.0953763 1.36154 0.263409 1.52957C0.431442 1.6976 0.659343 1.792 0.896977 1.792H1.89698L2.92798 13.275C3.00098 14.103 3.44798 15.001 4.21898 15.611C2.82998 17.385 4.09898 20 6.35898 20C8.23398 20 9.55598 18.13 8.91298 16.358H13.818C13.176 18.128 14.495 20 16.373 20C17.0933 19.9992 17.7839 19.7127 18.2933 19.2033C18.8027 18.694 19.0892 18.0034 19.09 17.283C19.0892 16.5627 18.8027 15.872 18.2933 15.3627C17.7839 14.8533 17.0933 14.5668 16.373 14.566H6.36498C5.68398 14.566 5.09098 14.156 4.83498 13.557L19.156 12.715C19.3465 12.7039 19.5285 12.6322 19.6755 12.5104C19.8224 12.3887 19.9267 12.2231 19.973 12.038L21.794 4.755C21.8269 4.62281 21.8293 4.48485 21.801 4.35159C21.7727 4.21833 21.7144 4.09326 21.6306 3.98589C21.5467 3.87852 21.4395 3.79166 21.3171 3.7319C21.1946 3.67214 21.0602 3.64105 20.924 3.641H20.925ZM6.35798 18.208C6.12009 18.1969 5.89561 18.0946 5.73118 17.9224C5.56675 17.7501 5.475 17.5211 5.475 17.283C5.475 17.0449 5.56675 16.8159 5.73118 16.6436C5.89561 16.4714 6.12009 16.3691 6.35798 16.358C6.59586 16.3691 6.82034 16.4714 6.98477 16.6436C7.14921 16.8159 7.24095 17.0449 7.24095 17.283C7.24095 17.5211 7.14921 17.7501 6.98477 17.9224C6.82034 18.0946 6.59586 18.1969 6.35798 18.208V18.208ZM16.373 18.208C16.1351 18.1969 15.9106 18.0946 15.7462 17.9224C15.5817 17.7501 15.49 17.5211 15.49 17.283C15.49 17.0449 15.5817 16.8159 15.7462 16.6436C15.9106 16.4714 16.1351 16.3691 16.373 16.358C16.6109 16.3691 16.8353 16.4714 16.9998 16.6436C17.1642 16.8159 17.256 17.0449 17.256 17.283C17.256 17.5211 17.1642 17.7501 16.9998 17.9224C16.8353 18.0946 16.6109 18.1969 16.373 18.208V18.208ZM18.394 10.965L4.59398 11.775L4.02398 5.434H19.777L18.394 10.964V10.965Z" fill="currentColor"/>
</svg>
